<?xml version="1.0" standalone="no"?>
<!DOCTYPE svg PUBLIC "-//W3C//DTD SVG 20010904//EN"
 "http://www.w3.org/TR/2001/REC-SVG-20010904/DTD/svg10.dtd">
<svg version="1.0" xmlns="http://www.w3.org/2000/svg"
 width="605.000000pt" height="602.000000pt" viewBox="0 0 605.000000 602.000000"
 preserveAspectRatio="xMidYMid meet">

<g transform="translate(0.000000,602.000000) scale(0.100000,-0.100000)"
fill="#000000" stroke="none">
<path d="M2738 5960 c-668 -76 -1260 -361 -1733 -835 -386 -385 -641 -842
-770 -1375 -86 -359 -99 -795 -35 -1165 143 -819 642 -1547 1359 -1979 855
-517 1926 -549 2811 -84 316 166 617 405 844 669 381 443 615 975 688 1559 17
136 17 533 0 670 -47 372 -167 746 -339 1055 -445 799 -1212 1333 -2115 1471
-120 19 -588 28 -710 14z m292 -315 c23 -77 49 -148 58 -157 14 -17 12 -18
-32 -18 -28 0 -45 4 -41 10 5 9 -28 156 -38 166 -2 3 -20 -38 -38 -90 -19 -51
-38 -95 -44 -97 -5 -2 -32 38 -60 88 -27 50 -50 91 -51 90 -1 -1 -7 -37 -13
-81 -8 -58 -8 -82 0 -92 9 -12 3 -14 -36 -14 -39 0 -45 2 -36 14 6 7 21 79 34
160 12 80 25 146 29 146 4 0 34 -50 66 -110 l59 -111 33 88 c47 126 60 157 64
152 2 -2 23 -67 46 -144z m363 115 c24 0 27 -4 27 -31 0 -25 -3 -30 -17 -25
-9 4 -36 10 -60 13 -41 5 -43 5 -43 -20 0 -14 -2 -32 -6 -40 -7 -18 60 -31 87
-16 17 9 19 6 19 -31 0 -40 -7 -48 -25 -31 -6 5 -26 11 -46 15 -35 6 -37 5
-43 -25 -12 -62 -9 -67 39 -75 30 -4 50 -2 60 6 12 10 15 10 15 -3 0 -49 -16
-53 -139 -41 -53 6 -59 9 -49 22 18 21 39 251 26 276 -10 18 -7 19 58 13 38
-4 81 -7 97 -7z m307 -162 l64 -133 23 75 c13 41 21 87 19 102 -5 26 -4 26 27
16 18 -5 38 -12 46 -14 11 -4 11 -7 -3 -17 -10 -7 -31 -66 -52 -142 -20 -72
-40 -134 -45 -139 -4 -5 -36 48 -71 118 -34 69 -65 126 -68 126 -3 0 -15 -37
-28 -81 -17 -62 -20 -84 -11 -95 14 -17 6 -17 -43 -3 -42 11 -44 14 -24 34 7
7 28 67 45 132 43 159 41 153 50 153 4 0 36 -60 71 -132z m-1200 90 c56 -29
85 -82 85 -155 0 -36 -6 -60 -21 -80 -26 -36 -99 -73 -144 -73 -136 0 -211
178 -116 273 57 57 127 70 196 35z m-410 -100 c1 -18 11 -94 24 -168 12 -74
19 -137 14 -138 -4 -2 -45 27 -89 64 -78 65 -81 66 -76 38 16 -80 29 -185 24
-190 -3 -3 -59 39 -124 93 -65 55 -126 104 -135 109 -14 8 -11 12 23 31 28 15
39 18 39 8 0 -13 127 -131 134 -124 2 2 -3 44 -11 93 -7 49 -13 96 -11 104 2
11 27 -5 82 -51 44 -36 82 -65 84 -63 7 8 -29 171 -41 179 -8 6 -9 10 -1 13 6
3 20 11 30 19 28 21 34 18 34 -17z m1989 -37 c11 -7 9 -19 -12 -65 -25 -53
-39 -67 -51 -47 -7 10 33 121 43 121 3 0 12 -4 20 -9z m334 -153 l37 -33 -19
-25 -19 -24 -12 26 c-16 33 -57 53 -76 37 -20 -16 -17 -49 6 -84 22 -34 26
-76 8 -108 -18 -34 -40 -46 -84 -47 -32 0 -49 7 -78 33 -36 30 -37 34 -25 60
15 34 25 34 33 2 7 -29 38 -47 73 -43 40 5 46 37 16 98 -16 33 -23 60 -19 76
18 71 97 86 159 32z m-1003 -147 c837 -152 1502 -751 1735 -1561 62 -216 79
-346 79 -605 0 -259 -17 -389 -79 -605 -209 -726 -778 -1299 -1496 -1505 -235
-68 -324 -80 -609 -80 -275 0 -376 13 -585 71 -510 143 -958 472 -1247 914
-167 255 -273 524 -331 835 -30 163 -32 564 -3 720 92 502 302 899 657 1240
175 168 343 284 560 389 214 103 395 159 633 197 169 26 518 21 686 -10z
m-2015 -61 c18 -19 17 -20 -11 -26 -34 -7 -54 -20 -77 -54 -52 -75 28 -192
121 -176 38 6 82 41 82 65 0 20 -50 71 -69 71 -11 0 -7 8 12 28 l28 27 44 -50
c24 -27 44 -58 45 -68 0 -26 -77 -104 -117 -118 -106 -35 -213 46 -213 163 0
53 27 99 77 132 47 31 55 31 78 6z m3447 -117 c32 -30 35 -43 12 -43 -20 0
-161 -125 -169 -150 -11 -35 31 -89 69 -90 22 0 167 127 174 152 6 24 11 23
44 -9 32 -31 35 -43 10 -43 -10 0 -55 -34 -100 -75 -68 -62 -88 -75 -116 -75
-71 0 -145 85 -131 150 4 20 34 57 86 107 43 42 79 83 79 90 0 19 11 16 42
-14z m-3653 -265 c131 -106 131 -104 -24 -107 -44 -1 -97 -5 -117 -9 l-38 -7
62 -50 c34 -27 70 -52 81 -55 19 -5 19 -8 -11 -40 -23 -25 -31 -30 -32 -18 0
9 -52 60 -115 112 -64 52 -112 97 -108 99 5 3 70 8 146 12 75 4 137 10 136 14
-1 12 -110 93 -134 100 l-24 6 26 34 c21 26 28 30 32 18 3 -8 57 -57 120 -109z
m3971 -32 c0 -2 -14 -64 -30 -137 -17 -73 -29 -136 -28 -140 2 -3 36 18 76 48
42 31 70 58 66 65 -4 6 -1 9 5 7 7 -3 21 -19 32 -37 19 -29 19 -32 4 -32 -9 0
-71 -39 -136 -86 -66 -47 -122 -84 -124 -83 -1 2 10 65 26 139 16 74 28 138
26 143 -1 4 -32 -14 -69 -40 -44 -31 -68 -55 -68 -68 -1 -17 -5 -15 -30 15
-36 41 -37 50 -8 50 11 0 35 11 53 24 127 98 205 147 205 132z m-4258 -305
c48 -28 94 -61 102 -73 47 -67 -23 -188 -109 -188 -14 0 -65 23 -113 50 -48
28 -96 50 -105 50 -22 0 -21 8 4 49 19 32 21 33 34 14 16 -23 168 -113 190
-113 24 0 65 46 65 73 0 13 -8 31 -17 40 -36 31 -176 108 -189 103 -18 -7 -18
-4 8 40 18 31 23 34 32 21 7 -8 51 -38 98 -66z m4488 -83 c25 -41 25 -48 1
-48 -24 0 -211 -106 -231 -131 -14 -18 -16 -17 -38 21 -23 40 -23 40 -2 40 26
0 210 104 230 130 8 11 16 19 18 20 1 0 11 -15 22 -32z m104 -212 c3 -13 9
-31 12 -40 4 -11 0 -16 -12 -16 -11 0 -50 -31 -88 -68 l-69 -67 79 -8 c44 -4
95 -6 115 -3 34 3 37 2 47 -30 l10 -35 -31 6 c-18 3 -97 10 -177 16 -80 6
-147 13 -150 15 -4 5 238 248 251 252 4 1 10 -9 13 -22z m-4836 -93 c36 -51
52 -64 98 -82 30 -11 62 -17 71 -14 13 5 15 3 9 -13 -5 -10 -13 -31 -18 -46
-10 -27 -10 -27 -26 -9 -10 10 -38 27 -65 36 -42 16 -55 16 -125 5 -42 -7 -85
-17 -94 -22 -22 -11 -22 -8 -2 42 10 25 20 37 28 33 20 -13 106 1 106 16 0 4
-18 27 -39 50 l-39 43 15 36 15 37 12 -26 c6 -14 30 -53 54 -86z m4992 -383
c12 -50 21 -92 19 -94 -2 -2 -15 -6 -29 -9 -24 -6 -25 -4 -26 44 -1 28 -5 54
-10 58 -5 5 -24 4 -43 -1 -32 -9 -33 -11 -27 -46 3 -20 13 -43 23 -49 21 -16
17 -20 -28 -28 -35 -6 -36 -6 -32 22 3 15 0 40 -6 55 -10 25 -11 26 -50 14
-22 -6 -43 -14 -46 -18 -10 -9 14 -81 31 -94 12 -9 8 -13 -17 -18 -18 -3 -33
-5 -34 -4 -4 5 -45 169 -45 179 0 6 6 7 16 1 20 -11 242 42 264 64 8 8 15 14
16 14 1 0 12 -41 24 -90z m-4905 33 c-8 -47 -15 -59 -25 -44 -4 8 -35 11 -89
9 l-83 -3 83 -59 c46 -33 86 -61 88 -63 12 -9 -10 -16 -189 -59 -21 -5 -14
-11 54 -39 44 -18 86 -31 93 -28 11 4 13 -1 8 -23 -12 -53 -15 -60 -24 -46 -4
7 -68 39 -142 72 -73 33 -135 63 -137 68 -1 5 52 22 119 38 l121 29 -48 34
c-140 100 -156 113 -143 122 8 5 75 9 149 9 74 0 142 5 150 10 22 14 23 13 15
-27z m4974 -460 c1 -41 -4 -58 -23 -79 -33 -39 -89 -39 -123 0 l-24 28 -47
-37 c-26 -21 -55 -47 -64 -57 -17 -19 -17 -19 -24 6 -3 14 -4 32 -1 40 6 15
148 126 160 126 4 0 7 -11 7 -24 0 -29 24 -56 50 -56 29 0 50 28 50 66 0 39
10 37 -139 24 -57 -5 -109 -15 -117 -21 -11 -9 -14 -8 -14 4 0 8 -3 28 -6 45
-6 31 -6 31 27 26 60 -9 262 11 268 27 7 19 20 -55 20 -118z m-5039 -44 c0
-23 -15 -44 -72 -100 l-73 -70 73 3 72 4 0 -43 c0 -41 -11 -55 -25 -33 -9 15
-268 13 -283 -2 -9 -9 -12 -2 -12 33 l0 45 63 -4 62 -4 -50 51 c-27 28 -55 49
-62 46 -10 -3 -13 9 -13 45 0 28 5 50 10 50 6 0 10 -4 10 -9 0 -14 111 -131
124 -131 7 0 46 35 87 78 41 43 77 76 82 74 4 -2 7 -16 7 -33z m4790 -282 c0
-2 -7 -19 -16 -37 -24 -47 -10 -84 34 -88 28 -3 35 1 50 29 28 54 67 89 99 89
60 0 92 -49 85 -131 -4 -36 -6 -39 -34 -39 -25 0 -29 3 -23 18 17 38 17 78 0
92 -22 19 -43 5 -76 -51 -43 -75 -109 -91 -160 -40 -24 25 -29 38 -29 78 0 51
6 67 30 76 18 6 40 9 40 4z m-4844 -123 c103 -49 109 -222 9 -284 -50 -31
-143 -33 -183 -4 -37 27 -72 100 -72 149 0 117 133 192 246 139z m4884 -265
c66 -16 127 -26 136 -22 15 5 16 1 10 -33 -10 -50 -17 -60 -27 -41 -11 18
-229 71 -265 64 -19 -3 -23 -1 -20 12 3 9 8 28 12 44 5 22 9 25 20 16 7 -6 67
-24 134 -40z m-4780 -146 c36 -21 69 -76 76 -127 13 -89 -52 -166 -152 -181
-30 -5 -50 -1 -84 17 -112 58 -121 221 -16 284 58 34 124 37 176 7z m4699
-143 l112 -40 9 25 c5 14 7 32 4 40 -8 19 6 19 31 1 18 -13 18 -15 2 -60 -9
-25 -24 -66 -33 -91 -13 -35 -22 -45 -39 -45 -32 0 -36 9 -14 31 36 36 21 50
-96 89 -60 21 -115 35 -122 33 -16 -6 -16 11 -1 54 11 29 14 32 24 18 6 -8 62
-33 123 -55z m-4497 -280 c14 -11 33 -39 43 -62 16 -42 16 -43 -5 -60 -31 -25
-40 -22 -34 10 4 19 -1 36 -16 55 -42 53 -90 20 -90 -64 0 -79 -58 -126 -118
-95 -27 14 -42 36 -61 88 -9 23 -7 29 9 38 30 16 37 12 37 -19 0 -37 19 -61
48 -61 28 0 35 17 35 82 0 41 5 54 29 79 36 35 86 39 123 9z m4241 -5 c4 -8
28 -25 54 -38 44 -22 54 -24 128 -16 44 5 88 11 98 13 21 5 20 6 3 -35 -13
-32 -15 -33 -70 -30 -30 1 -60 -1 -66 -4 -11 -7 27 -67 57 -92 12 -10 11 -17
-6 -50 -12 -22 -20 -31 -21 -20 0 9 -21 49 -47 88 -37 55 -58 76 -96 96 -27
13 -58 22 -69 20 -15 -4 -18 -2 -13 11 4 9 12 29 17 45 11 30 23 35 31 12z
m-254 -597 l43 -48 -23 -19 -24 -20 -70 70 -70 69 -90 -90 c-90 -90 -111 -103
-121 -75 -4 11 31 52 112 130 l119 114 41 -42 c22 -23 60 -63 83 -89z m-3682
88 c41 -34 68 -46 105 -46 43 -1 65 -31 66 -93 0 -32 9 -61 27 -93 20 -34 24
-49 16 -57 -8 -8 -16 -9 -28 -1 -20 13 -70 107 -78 146 -4 20 -16 32 -49 46
-24 11 -62 37 -85 57 -33 30 -39 40 -30 51 16 19 23 18 56 -10z m38 -161 c60
-71 115 -138 124 -148 13 -16 13 -19 -1 -33 -14 -14 -21 -9 -73 51 -39 44 -62
62 -68 56 -7 -7 0 -22 19 -47 16 -20 38 -48 48 -61 l19 -25 -49 -44 c-27 -24
-51 -43 -54 -43 -3 0 -14 12 -24 26 l-20 26 32 27 c18 15 32 30 32 34 0 3 -43
57 -95 119 -52 62 -95 118 -95 125 0 27 30 24 53 -4 56 -72 75 -89 88 -77 9 9
-1 26 -44 76 -53 59 -55 64 -40 80 14 14 20 14 28 5 7 -7 60 -71 120 -143z
m3672 -23 c34 34 56 49 67 45 9 -4 16 -10 16 -14 0 -5 -63 -71 -140 -148 -132
-132 -141 -139 -157 -122 -16 16 -16 18 5 33 21 14 31 44 15 44 -5 0 -27 22
-51 50 l-42 49 22 21 22 20 52 -51 c35 -34 58 -50 68 -46 26 10 18 29 -34 82
l-49 50 21 23 22 22 56 -55 55 -55 52 52z m-3112 -221 c51 -34 89 -65 88 -73
-4 -19 56 -53 69 -40 8 8 20 6 40 -4 27 -14 28 -17 15 -37 -8 -12 -44 -70 -82
-130 -48 -76 -75 -109 -92 -113 -95 -24 -223 63 -223 152 0 88 131 92 223 6
24 -22 29 -24 37 -12 5 8 10 18 10 21 0 13 -52 40 -67 35 -16 -7 -202 103
-203 119 0 14 78 135 87 134 5 0 49 -26 98 -58z m2491 22 c19 -24 24 -26 39
-13 14 12 18 12 26 -1 13 -21 11 -36 -7 -43 -14 -5 -13 -10 5 -40 l21 -34 -26
-17 c-30 -19 -27 -22 -88 70 l-46 70 21 18 c28 22 29 22 55 -10z m-87 -67 c8
-9 8 -16 2 -20 -5 -4 2 -18 16 -32 20 -20 24 -32 19 -55 -13 -65 -83 -119
-155 -119 -43 0 -81 26 -81 56 0 8 -5 12 -11 8 -10 -6 -28 11 -29 27 0 4 18
18 40 33 25 16 37 31 34 40 -8 20 43 53 58 38 8 -8 21 -4 47 14 42 28 45 29
60 10z m207 -119 c11 -17 28 -43 37 -57 16 -25 16 -26 -12 -43 l-29 -17 -22
35 c-12 19 -26 35 -31 35 -6 0 -42 -22 -82 -48 -40 -27 -89 -58 -109 -71 -36
-22 -37 -22 -47 -2 -10 17 3 28 127 110 75 50 139 91 142 91 3 0 14 -15 26
-33z m-617 -247 c24 -94 42 -172 40 -174 -2 -3 -16 -7 -31 -11 -25 -6 -27 -4
-41 47 -9 29 -21 74 -28 101 -10 42 -24 65 -34 56 -2 -2 10 -52 25 -111 24
-91 26 -107 13 -112 -42 -17 -50 -8 -73 77 -12 45 -32 121 -45 169 -20 75 -21
87 -8 92 34 14 52 6 61 -26 4 -17 14 -34 21 -36 9 -3 11 2 7 17 -3 11 -9 30
-12 41 -5 19 19 37 51 39 6 1 30 -76 54 -169z m-1443 108 c16 -13 34 -29 40
-37 6 -8 30 -20 54 -27 39 -12 43 -11 47 7 3 11 14 19 27 19 47 0 47 -8 0
-185 -24 -94 -44 -171 -44 -172 0 -1 -13 3 -30 8 -36 13 -36 14 -10 104 11 38
20 73 20 76 0 3 -19 10 -42 15 -32 7 -53 6 -80 -4 -81 -31 -178 26 -178 105 1
74 41 112 121 113 33 0 55 -6 75 -22z m1222 -20 c-2 -17 -15 -25 -58 -36 -30
-8 -56 -16 -57 -16 -1 -1 5 -29 13 -62 l16 -61 60 15 c51 13 61 13 69 1 5 -8
9 -17 9 -20 0 -6 -182 -58 -188 -54 -5 4 -52 180 -52 195 0 11 23 22 78 36
105 29 114 29 110 2z m-430 -105 c3 -34 7 -42 25 -45 30 -4 30 -42 0 -46 -22
-3 -23 -7 -23 -113 l0 -109 -35 0 -35 0 0 173 c0 96 3 177 7 181 4 4 19 6 33
4 22 -3 25 -8 28 -45z m-128 12 c0 -23 -4 -25 -44 -25 -44 0 -45 0 -36 -29 13
-47 29 -70 60 -86 31 -16 42 -55 16 -55 -28 0 -67 20 -92 47 -24 26 -25 26
-39 6 -15 -22 -73 -53 -99 -53 -26 0 -19 39 8 50 28 10 53 43 66 89 9 31 8 31
-30 31 -41 0 -55 11 -46 35 4 12 29 15 121 15 l115 0 0 -25z"/>
<path d="M2374 5650 c-68 -27 -72 -144 -8 -202 36 -32 97 -27 135 11 23 23 29
38 29 71 0 97 -73 154 -156 120z"/>
<path d="M2993 4973 c-37 -57 -11 -163 40 -163 40 0 67 39 67 96 0 62 -21 94
-60 94 -21 0 -35 -8 -47 -27z"/>
<path d="M2902 4777 c-5 -7 -23 -37 -40 -67 l-31 -55 90 -52 90 -53 -3 92 -3
92 -47 27 c-34 20 -49 25 -56 16z"/>
<path d="M3112 4758 l-52 -33 0 -88 0 -88 23 12 c53 28 157 92 157 97 0 6 -70
132 -73 132 -1 0 -26 -15 -55 -32z"/>
<path d="M2748 4515 l-37 -65 22 -14 c12 -8 79 -48 150 -90 l127 -75 0 89 0
89 -109 65 c-60 36 -110 66 -112 66 -2 0 -21 -29 -41 -65z"/>
<path d="M3173 4513 l-113 -68 0 -88 c0 -48 3 -86 8 -84 27 15 288 170 291
173 5 4 -37 85 -59 114 -15 19 -18 18 -127 -47z"/>
<path d="M2630 4311 c-18 -33 -33 -63 -32 -68 0 -8 271 -173 284 -173 6 0 78
115 78 125 0 4 -286 175 -293 175 -2 0 -18 -27 -37 -59z"/>
<path d="M3271 4290 c-74 -43 -138 -83 -143 -88 -10 -10 50 -132 65 -132 6 0
273 155 286 167 6 4 -50 111 -64 123 -7 6 -61 -21 -144 -70z"/>
<path d="M2894 3985 c-117 -201 -139 -247 -128 -256 18 -15 18 -63 -1 -79 -10
-8 -29 -10 -57 -5 -47 8 -658 19 -658 11 0 -2 73 -131 161 -286 145 -252 161
-284 151 -305 -6 -14 -79 -142 -162 -285 -82 -144 -150 -264 -150 -266 0 -3
147 -4 328 -2 l327 3 60 27 c98 43 153 100 179 185 7 22 7 22 -174 25 -177 3
-182 4 -201 27 -27 33 -24 66 7 90 25 19 40 21 205 21 l179 0 0 44 c0 59 29
96 76 96 50 0 74 -29 74 -90 l0 -50 179 0 c165 0 180 -2 205 -21 32 -25 35
-68 5 -95 -19 -17 -41 -19 -200 -22 l-179 -3 6 -27 c17 -77 108 -160 210 -192
61 -18 93 -20 381 -20 l314 0 -32 58 c-18 31 -91 158 -162 282 -72 123 -130
229 -130 235 0 5 59 111 130 235 71 124 144 251 162 283 l32 57 -240 0 -241 0
0 -27 c0 -50 -30 -203 -56 -284 l-25 -80 55 -71 c31 -39 56 -75 56 -80 0 -5
-11 -20 -25 -34 -33 -33 -58 -26 -111 31 l-41 44 -39 -40 c-47 -48 -75 -57
-109 -35 -19 12 -30 14 -44 6 -53 -28 -106 46 -122 173 -13 93 -2 147 33 166
23 13 29 13 52 -2 23 -16 26 -24 26 -80 0 -63 21 -162 38 -179 6 -6 25 10 51
45 l41 54 -30 59 c-33 66 -55 135 -65 207 -6 38 -4 52 10 67 33 37 105 15 105
-32 0 -9 10 -47 21 -84 25 -81 31 -74 50 60 16 112 12 116 -91 116 -62 0 -80
4 -93 18 -33 37 -8 92 41 92 12 0 22 3 22 7 0 9 -254 452 -260 453 -3 0 -69
-110 -146 -245z m155 -181 c12 -15 21 -33 21 -40 0 -10 13 -14 43 -14 51 0 87
-22 87 -55 0 -33 -36 -55 -87 -55 -39 0 -43 -2 -43 -25 0 -23 3 -25 50 -25 52
0 90 -23 90 -54 0 -27 -50 -56 -96 -56 l-44 0 0 -190 c0 -189 0 -191 -25 -215
-29 -30 -64 -32 -96 -6 -24 19 -24 23 -27 215 l-3 196 -32 0 c-46 0 -77 25
-77 60 0 34 23 50 73 50 l35 0 4 99 c2 80 7 103 22 120 28 31 79 28 105 -5z
m-364 -212 c61 -21 83 -33 94 -54 14 -24 14 -28 -3 -47 -24 -26 -56 -26 -142
0 -81 25 -104 42 -104 80 0 30 22 49 55 48 11 -1 56 -13 100 -27z m199 -173
c23 -18 26 -27 26 -87 -1 -165 -60 -274 -131 -238 -29 14 -31 58 -6 121 9 23
16 71 17 111 0 70 10 96 40 107 24 9 26 8 54 -14z m-153 -10 c18 -18 20 -28
15 -73 -9 -64 -54 -163 -102 -221 -29 -35 -43 -45 -67 -45 -34 0 -67 25 -67
50 0 10 18 40 40 66 39 48 63 102 76 177 11 62 65 86 105 46z"/>
<path d="M2522 4121 c-27 -48 -27 -53 2 -99 17 -28 52 -55 132 -100 59 -35
111 -59 115 -55 4 4 21 33 38 65 l32 56 -134 81 c-74 44 -141 83 -149 86 -9 4
-22 -8 -36 -34z"/>
<path d="M3386 4080 c-70 -43 -133 -83 -138 -88 -7 -7 0 -29 21 -66 18 -31 35
-58 39 -60 4 -2 54 24 112 58 84 50 109 71 133 109 l28 46 -23 40 c-13 23 -27
41 -33 40 -5 0 -68 -36 -139 -79z"/>
<path d="M1393 4059 c-24 -24 -15 -75 17 -102 99 -83 200 -5 107 82 -30 28
-105 40 -124 20z"/>
<path d="M4582 4053 c-19 -9 -41 -31 -50 -50 -38 -81 63 -113 137 -44 76 71 9
142 -87 94z"/>
<path d="M1632 3988 l3 -62 70 -42 c39 -24 74 -43 78 -43 5 -1 7 45 5 102 l-3
102 -78 3 -78 3 3 -63z"/>
<path d="M1870 3920 l0 -130 33 -20 c67 -41 116 -64 123 -58 3 4 3 82 -1 173
l-7 165 -74 0 -74 0 0 -130z"/>
<path d="M2110 3880 l0 -170 80 0 80 0 0 78 c0 44 -3 120 -6 170 l-7 92 -73 0
-74 0 0 -170z"/>
<path d="M2350 3933 c0 -65 3 -142 6 -170 l7 -53 68 0 69 0 0 131 c0 117 -2
134 -22 169 -22 38 -25 40 -75 40 l-53 0 0 -117z"/>
<path d="M3593 4010 c-21 -35 -23 -52 -23 -169 l0 -131 75 0 75 0 0 170 0 170
-52 0 c-51 0 -54 -2 -75 -40z"/>
<path d="M3810 3880 l0 -170 75 0 75 0 0 170 0 170 -75 0 -75 0 0 -170z"/>
<path d="M4050 3880 c0 -111 4 -170 10 -170 6 0 40 17 75 37 l65 37 0 133 0
133 -75 0 -75 0 0 -170z"/>
<path d="M4290 3944 c0 -58 3 -104 8 -102 4 2 37 20 75 41 l67 39 0 64 0 64
-75 0 -75 0 0 -106z"/>
<path d="M2550 3851 l0 -78 30 5 c17 2 52 -1 77 -9 44 -12 47 -11 65 10 10 13
18 27 18 31 0 4 -43 33 -95 63 l-95 56 0 -78z"/>
<path d="M3418 3869 c-87 -50 -87 -51 -72 -74 13 -19 26 -24 77 -27 34 -2 70
-8 80 -12 15 -7 17 0 17 78 0 47 -3 86 -7 86 -5 0 -47 -23 -95 -51z"/>
<path d="M1555 3855 c-22 -14 -44 -26 -48 -28 -7 -2 39 -91 69 -135 2 -3 171
93 182 103 4 4 -143 85 -154 85 -5 0 -27 -12 -49 -25z"/>
<path d="M4390 3840 c-35 -22 -66 -42 -67 -47 -2 -6 132 -87 167 -101 8 -3 85
127 78 132 -20 14 -98 56 -105 55 -4 0 -37 -18 -73 -39z"/>
<path d="M1730 3678 c-58 -33 -106 -62 -108 -63 -1 -1 15 -31 36 -67 l38 -66
148 83 c81 45 146 86 145 91 -4 12 -128 84 -143 84 -6 -1 -58 -28 -116 -62z"/>
<path d="M4148 3699 c-38 -22 -68 -43 -68 -47 0 -4 35 -26 78 -49 42 -24 109
-61 149 -83 l71 -40 37 66 c20 36 35 67 33 69 -10 9 -221 125 -226 125 -4 -1
-37 -19 -74 -41z"/>
<path d="M1883 3487 l-142 -81 32 -59 c18 -33 37 -61 43 -64 6 -2 77 33 156
78 l145 81 -36 64 c-20 35 -40 64 -46 63 -5 0 -74 -37 -152 -82z"/>
<path d="M3996 3508 c-19 -34 -33 -65 -30 -69 2 -4 50 -33 106 -64 57 -32 122
-69 144 -82 l42 -24 37 66 c20 37 35 68 33 69 -13 12 -288 166 -294 166 -1 0
-19 -28 -38 -62z"/>
<path d="M2002 3278 l-142 -80 23 -42 c21 -39 25 -41 75 -44 49 -3 61 2 162
60 61 34 110 65 110 69 0 15 -66 119 -75 118 -5 0 -74 -36 -153 -81z"/>
<path d="M3876 3298 l-35 -62 107 -63 c96 -56 113 -63 163 -63 54 0 56 1 78
41 13 22 19 44 15 48 -11 10 -282 161 -288 161 -3 0 -21 -28 -40 -62z"/>
<path d="M2168 3146 c-48 -28 -88 -54 -88 -58 0 -8 180 -112 184 -107 12 14
56 98 56 105 0 5 -15 32 -33 60 l-32 50 -87 -50z"/>
<path d="M3785 3137 l-28 -53 28 -52 28 -52 66 37 c36 20 79 44 94 54 l29 17
-87 51 c-48 28 -90 51 -95 51 -4 0 -20 -24 -35 -53z"/>
<path d="M1898 3038 c-8 -13 -20 -33 -26 -45 -13 -23 -17 -20 215 -151 l73
-41 39 67 c22 36 39 67 38 68 -1 1 -49 30 -107 63 -95 55 -110 61 -161 61 -48
0 -59 -4 -71 -22z"/>
<path d="M3985 3023 c-33 -19 -79 -46 -103 -60 l-43 -24 32 -57 c17 -31 35
-61 40 -66 7 -7 266 129 292 154 5 4 -2 26 -15 49 l-23 41 -60 -1 c-50 0 -70
-6 -120 -36z"/>
<path d="M4110 2814 c-80 -46 -144 -88 -143 -93 2 -8 57 -103 69 -119 3 -5
294 158 294 165 0 4 -69 125 -74 129 0 1 -66 -36 -146 -82z"/>
<path d="M1777 2828 c-20 -35 -33 -66 -29 -69 4 -4 71 -43 149 -87 l142 -80
39 66 40 66 -145 83 c-80 46 -149 83 -153 83 -5 0 -24 -28 -43 -62z"/>
<path d="M1679 2658 c-6 -13 -23 -42 -36 -65 l-24 -41 102 -57 c56 -32 110
-60 120 -62 11 -3 48 12 90 37 l71 42 -147 84 c-81 46 -151 84 -156 84 -4 0
-14 -10 -20 -22z"/>
<path d="M4285 2638 c-38 -23 -101 -59 -138 -80 -78 -45 -78 -47 15 -97 l64
-34 112 62 c62 35 112 66 112 69 0 18 -68 117 -81 119 -8 1 -45 -17 -84 -39z"/>
<path d="M3010 2563 c-31 -46 -110 -105 -183 -138 l-58 -27 21 -36 c12 -19 71
-122 132 -229 60 -106 113 -193 117 -193 6 0 261 442 261 453 0 3 -30 19 -66
36 -78 37 -137 81 -173 132 l-27 37 -24 -35z"/>
<path d="M4415 2434 c-44 -25 -86 -49 -93 -53 -8 -4 16 -23 64 -50 l76 -43 36
16 c78 36 78 37 37 108 -20 35 -38 64 -39 65 -1 1 -38 -18 -81 -43z"/>
<path d="M1541 2415 c-17 -30 -32 -59 -33 -65 -2 -5 20 -23 47 -39 l50 -29 78
45 78 45 -85 49 c-47 27 -90 49 -95 49 -5 0 -23 -25 -40 -55z"/>
<path d="M1938 2418 l-68 -40 0 -129 0 -129 73 0 74 0 6 128 c10 183 9 212 -5
212 -7 -1 -43 -19 -80 -42z"/>
<path d="M2110 2290 l0 -170 74 0 73 0 7 92 c3 50 6 126 6 170 l0 78 -80 0
-80 0 0 -170z"/>
<path d="M2356 2399 c-3 -34 -6 -111 -6 -170 l0 -109 50 0 c47 0 50 1 75 43
23 41 25 53 25 170 l0 127 -69 0 -68 0 -7 -61z"/>
<path d="M3570 2334 c0 -117 2 -128 26 -170 25 -43 28 -44 75 -44 l49 0 0 170
0 170 -75 0 -75 0 0 -126z"/>
<path d="M3810 2290 l0 -170 75 0 75 0 0 170 0 170 -75 0 -75 0 0 -170z"/>
<path d="M4050 2291 l0 -171 75 0 75 0 0 133 0 132 -63 35 c-34 19 -68 36 -74
38 -10 3 -13 -36 -13 -167z"/>
<path d="M2675 2378 c-22 -5 -59 -7 -82 -5 l-43 5 0 -65 0 -65 38 22 c20 12
61 36 89 52 29 17 55 33 58 38 11 17 -21 27 -60 18z"/>
<path d="M3506 2382 c-6 -10 -29 -13 -84 -10 -45 2 -76 -1 -79 -7 -2 -6 36
-34 84 -63 l88 -52 3 35 c5 56 -2 112 -12 97z"/>
<path d="M1708 2284 l-78 -45 0 -59 0 -60 74 0 c50 0 75 4 79 13 5 13 10 197
5 197 -2 0 -38 -21 -80 -46z"/>
<path d="M4290 2225 l0 -105 75 0 75 0 0 63 c0 56 -3 65 -22 75 -13 6 -47 25
-75 42 l-53 30 0 -105z"/>
<path d="M2655 2255 c-92 -53 -114 -70 -134 -107 -22 -39 -23 -48 -12 -74 30
-73 24 -73 185 22 l146 87 -36 66 c-20 36 -37 67 -38 68 -1 0 -50 -27 -111
-62z"/>
<path d="M3275 2249 c-20 -34 -32 -65 -28 -70 4 -4 68 -44 142 -88 85 -50 139
-77 145 -71 6 5 19 24 29 43 18 34 18 34 -10 81 -23 39 -46 57 -130 106 -56
33 -104 60 -107 60 -3 0 -21 -28 -41 -61z"/>
<path d="M1445 2238 c-43 -24 -65 -52 -65 -84 0 -43 21 -58 72 -51 44 6 91 44
102 84 14 46 -57 80 -109 51z"/>
<path d="M4535 2230 c-51 -56 65 -156 141 -121 32 14 32 59 -1 95 -44 48 -109
60 -140 26z"/>
<path d="M2765 2036 c-67 -39 -133 -79 -148 -89 l-26 -17 36 -63 c20 -34 37
-63 38 -65 2 -2 68 36 149 83 l145 87 -20 39 c-11 22 -28 53 -37 68 l-17 28
-120 -71z"/>
<path d="M3156 2042 c-21 -35 -34 -68 -29 -72 4 -4 69 -44 143 -89 153 -91
138 -92 191 6 21 39 22 47 9 55 -8 5 -74 44 -146 86 l-130 78 -38 -64z"/>
<path d="M3066 1883 c-3 -8 -6 -47 -6 -86 l0 -72 73 -42 c39 -24 91 -54 114
-68 l42 -25 35 60 c20 34 36 65 36 70 0 4 -19 19 -42 32 -24 14 -89 52 -145
85 -79 48 -103 58 -107 46z"/>
<path d="M2848 1806 l-137 -82 36 -65 c20 -35 37 -65 38 -67 1 -1 52 27 114
64 l111 67 0 83 c0 61 -3 84 -12 83 -7 -1 -75 -38 -150 -83z"/>
<path d="M2918 1568 l-87 -52 34 -60 c19 -33 39 -62 45 -64 5 -2 30 8 55 23
l45 26 0 89 c0 50 -1 90 -2 90 -2 -1 -42 -24 -90 -52z"/>
<path d="M3062 1533 l3 -87 52 -33 51 -33 36 64 c20 35 36 67 36 70 0 5 -166
106 -176 106 -2 0 -3 -39 -2 -87z"/>
<path d="M3001 1341 c-51 -51 -27 -163 36 -169 40 -4 63 27 63 86 0 87 -52
130 -99 83z"/>
<path d="M503 2779 c-46 -13 -73 -53 -73 -106 0 -98 116 -137 200 -67 25 21
30 33 30 68 0 50 -21 83 -66 102 -38 16 -46 16 -91 3z"/>
<path d="M593 2361 c-49 -23 -63 -45 -63 -99 0 -77 67 -118 150 -93 69 20 99
89 69 155 -12 26 -64 56 -96 56 -10 0 -37 -9 -60 -19z"/>
<path d="M1746 1035 c-23 -34 -21 -39 23 -68 l40 -27 22 31 c23 33 22 35 -32
67 l-37 22 -16 -25z"/>
<path d="M1887 933 c-8 -7 42 -43 61 -43 22 0 13 19 -18 35 -33 17 -34 17 -43
8z"/>
<path d="M1715 820 c-19 -61 116 -133 139 -74 14 35 -50 94 -102 94 -22 0 -32
-6 -37 -20z"/>
<path d="M4138 935 c-50 -28 -45 -85 8 -85 51 0 85 68 45 90 -24 12 -20 12
-53 -5z"/>
<path d="M2277 728 c-9 -7 -19 -25 -22 -40 -5 -21 -1 -33 19 -52 31 -32 50
-33 81 -1 29 28 31 51 9 83 -17 25 -60 30 -87 10z"/>
<path d="M2440 640 c0 -11 6 -20 14 -20 8 0 21 -3 30 -6 21 -8 34 25 15 37
-26 17 -59 11 -59 -11z"/>
</g>
</svg>
