<svg width="321" height="47" viewBox="0 0 321 47" fill="none" xmlns="http://www.w3.org/2000/svg">
<g filter="url(#filter0_di)">
<path d="M9.83984 8.66211C8.23177 8.19987 7.0599 7.63346 6.32422 6.96289C5.59505 6.28581 5.23047 5.45247 5.23047 4.46289C5.23047 3.3431 5.67643 2.41862 6.56836 1.68945C7.4668 0.953776 8.63216 0.585938 10.0645 0.585938C11.041 0.585938 11.9102 0.77474 12.6719 1.15234C13.4401 1.52995 14.0326 2.05078 14.4492 2.71484C14.8724 3.37891 15.084 4.10482 15.084 4.89258H13.1992C13.1992 4.0332 12.9258 3.35938 12.3789 2.87109C11.832 2.3763 11.0605 2.12891 10.0645 2.12891C9.13997 2.12891 8.41732 2.33398 7.89648 2.74414C7.38216 3.14779 7.125 3.71094 7.125 4.43359C7.125 5.01302 7.36914 5.50456 7.85742 5.9082C8.35221 6.30534 9.1888 6.66992 10.3672 7.00195C11.5521 7.33398 12.4766 7.70182 13.1406 8.10547C13.8112 8.5026 14.306 8.9681 14.625 9.50195C14.9505 10.0358 15.1133 10.6641 15.1133 11.3867C15.1133 12.5391 14.6641 13.4635 13.7656 14.1602C12.8672 14.8503 11.666 15.1953 10.1621 15.1953C9.18555 15.1953 8.27409 15.0098 7.42773 14.6387C6.58138 14.2611 5.92708 13.7467 5.46484 13.0957C5.00911 12.4447 4.78125 11.7057 4.78125 10.8789H6.66602C6.66602 11.7383 6.98177 12.4186 7.61328 12.9199C8.2513 13.4147 9.10091 13.6621 10.1621 13.6621C11.1517 13.6621 11.9102 13.4603 12.4375 13.0566C12.9648 12.653 13.2285 12.1029 13.2285 11.4062C13.2285 10.7096 12.9844 10.1725 12.4961 9.79492C12.0078 9.41081 11.1224 9.0332 9.83984 8.66211ZM28.4629 8.34961C28.4629 9.74284 28.2285 10.9603 27.7598 12.002C27.291 13.0371 26.627 13.8281 25.7676 14.375C24.9082 14.9219 23.9056 15.1953 22.7598 15.1953C21.64 15.1953 20.6471 14.9219 19.7812 14.375C18.9154 13.8216 18.2415 13.0371 17.7598 12.0215C17.2845 10.9993 17.0404 9.81771 17.0273 8.47656V7.45117C17.0273 6.08398 17.265 4.8763 17.7402 3.82812C18.2155 2.77995 18.8861 1.97917 19.752 1.42578C20.6243 0.865885 21.6204 0.585938 22.7402 0.585938C23.8796 0.585938 24.8822 0.86263 25.748 1.41602C26.6204 1.96289 27.291 2.76042 27.7598 3.80859C28.2285 4.85026 28.4629 6.06445 28.4629 7.45117V8.34961ZM26.5977 7.43164C26.5977 5.74544 26.2591 4.45312 25.582 3.55469C24.9049 2.64974 23.9577 2.19727 22.7402 2.19727C21.5553 2.19727 20.6211 2.64974 19.9375 3.55469C19.2604 4.45312 18.9121 5.70312 18.8926 7.30469V8.34961C18.8926 9.98372 19.2344 11.2695 19.918 12.207C20.6081 13.138 21.5553 13.6035 22.7598 13.6035C23.9707 13.6035 24.9082 13.1641 25.5723 12.2852C26.2363 11.3997 26.5781 10.1335 26.5977 8.48633V7.43164ZM42.2129 8.34961C42.2129 9.74284 41.9785 10.9603 41.5098 12.002C41.041 13.0371 40.377 13.8281 39.5176 14.375C38.6582 14.9219 37.6556 15.1953 36.5098 15.1953C35.39 15.1953 34.3971 14.9219 33.5312 14.375C32.6654 13.8216 31.9915 13.0371 31.5098 12.0215C31.0345 10.9993 30.7904 9.81771 30.7773 8.47656V7.45117C30.7773 6.08398 31.015 4.8763 31.4902 3.82812C31.9655 2.77995 32.6361 1.97917 33.502 1.42578C34.3743 0.865885 35.3704 0.585938 36.4902 0.585938C37.6296 0.585938 38.6322 0.86263 39.498 1.41602C40.3704 1.96289 41.041 2.76042 41.5098 3.80859C41.9785 4.85026 42.2129 6.06445 42.2129 7.45117V8.34961ZM40.3477 7.43164C40.3477 5.74544 40.0091 4.45312 39.332 3.55469C38.6549 2.64974 37.7077 2.19727 36.4902 2.19727C35.3053 2.19727 34.3711 2.64974 33.6875 3.55469C33.0104 4.45312 32.6621 5.70312 32.6426 7.30469V8.34961C32.6426 9.98372 32.9844 11.2695 33.668 12.207C34.3581 13.138 35.3053 13.6035 36.5098 13.6035C37.7207 13.6035 38.6582 13.1641 39.3223 12.2852C39.9863 11.3997 40.3281 10.1335 40.3477 8.48633V7.43164ZM48.6387 8.38867L46.9004 10.1953V15H45.0254V0.78125H46.9004V7.8125L53.2188 0.78125H55.4844L49.8887 7.06055L55.9238 15H53.6777L48.6387 8.38867ZM59.9863 0.78125L64.6348 12.3828L69.2832 0.78125H71.7148V15H69.8398V9.46289L70.0156 3.48633L65.3477 15H63.9121L59.2539 3.51562L59.4395 9.46289V15H57.5645V0.78125H59.9863ZM79.0879 7.91992L82.7988 0.78125H84.9277L80.0254 9.69727V15H78.1504V9.69727L73.248 0.78125H75.3965L79.0879 7.91992ZM95.8359 0.78125V10.4492C95.8294 11.7904 95.4062 12.8874 94.5664 13.7402C93.7331 14.5931 92.6003 15.0716 91.168 15.1758L90.6699 15.1953C89.1139 15.1953 87.8737 14.7754 86.9492 13.9355C86.0247 13.0957 85.556 11.9401 85.543 10.4688V0.78125H87.3984V10.4102C87.3984 11.4388 87.6816 12.2396 88.248 12.8125C88.8145 13.3789 89.6217 13.6621 90.6699 13.6621C91.7311 13.6621 92.5417 13.3789 93.1016 12.8125C93.668 12.2461 93.9512 11.4486 93.9512 10.4199V0.78125H95.8359ZM109.723 15H107.838L100.68 4.04297V15H98.7949V0.78125H100.68L107.857 11.7871V0.78125H109.723V15ZM123.551 13.1348C123.069 13.8249 122.395 14.3424 121.529 14.6875C120.67 15.026 119.667 15.1953 118.521 15.1953C117.363 15.1953 116.334 14.9251 115.436 14.3848C114.537 13.8379 113.84 13.0632 113.346 12.0605C112.857 11.0579 112.607 9.89583 112.594 8.57422V7.33398C112.594 5.19206 113.092 3.5319 114.088 2.35352C115.09 1.17513 116.497 0.585938 118.307 0.585938C119.791 0.585938 120.986 0.966797 121.891 1.72852C122.796 2.48372 123.349 3.55794 123.551 4.95117H121.676C121.324 3.06966 120.204 2.12891 118.316 2.12891C117.06 2.12891 116.106 2.57161 115.455 3.45703C114.811 4.33594 114.485 5.61198 114.479 7.28516V8.44727C114.479 10.0423 114.843 11.3118 115.572 12.2559C116.301 13.1934 117.288 13.6621 118.531 13.6621C119.234 13.6621 119.85 13.584 120.377 13.4277C120.904 13.2715 121.34 13.0078 121.686 12.6367V9.44336H118.395V7.91992H123.551V13.1348ZM8.7168 33.5176L8.99023 35.3926L9.39062 33.7031L12.2031 23.7812H13.7852L16.5293 33.7031L16.9199 35.4219L17.2227 33.5078L19.4297 23.7812H21.3145L17.8672 38H16.1582L13.2285 27.6387L13.0039 26.5547L12.7793 27.6387L9.74219 38H8.0332L4.5957 23.7812H6.4707L8.7168 33.5176ZM34.3418 31.3496C34.3418 32.7428 34.1074 33.9603 33.6387 35.002C33.1699 36.0371 32.5059 36.8281 31.6465 37.375C30.7871 37.9219 29.7845 38.1953 28.6387 38.1953C27.5189 38.1953 26.526 37.9219 25.6602 37.375C24.7943 36.8216 24.1204 36.0371 23.6387 35.0215C23.1634 33.9993 22.9193 32.8177 22.9062 31.4766V30.4512C22.9062 29.084 23.1439 27.8763 23.6191 26.8281C24.0944 25.7799 24.765 24.9792 25.6309 24.4258C26.5033 23.8659 27.4993 23.5859 28.6191 23.5859C29.7585 23.5859 30.7611 23.8626 31.627 24.416C32.4993 24.9629 33.1699 25.7604 33.6387 26.8086C34.1074 27.8503 34.3418 29.0645 34.3418 30.4512V31.3496ZM32.4766 30.4316C32.4766 28.7454 32.138 27.4531 31.4609 26.5547C30.7839 25.6497 29.8366 25.1973 28.6191 25.1973C27.4342 25.1973 26.5 25.6497 25.8164 26.5547C25.1393 27.4531 24.791 28.7031 24.7715 30.3047V31.3496C24.7715 32.9837 25.1133 34.2695 25.7969 35.207C26.487 36.138 27.4342 36.6035 28.6387 36.6035C29.8496 36.6035 30.7871 36.1641 31.4512 35.2852C32.1152 34.3997 32.457 33.1335 32.4766 31.4863V30.4316ZM39.5762 23.7812L44.2246 35.3828L48.873 23.7812H51.3047V38H49.4297V32.4629L49.6055 26.4863L44.9375 38H43.502L38.8438 26.5156L39.0293 32.4629V38H37.1543V23.7812H39.5762ZM62.6523 31.4277H56.4902V36.4668H63.6484V38H54.6152V23.7812H63.5508V25.3242H56.4902V29.8945H62.6523V31.4277ZM76.9102 38H75.0254L67.8672 27.043V38H65.9824V23.7812H67.8672L75.0449 34.7871V23.7812H76.9102V38ZM80.084 27.7852L79.0586 27.082C79.6641 26.2357 79.9766 25.3438 79.9961 24.4062V23H81.7832V24.2695C81.7767 24.9206 81.6139 25.5716 81.2949 26.2227C80.9824 26.8672 80.5788 27.388 80.084 27.7852ZM88.4336 31.6621C86.8255 31.1999 85.6536 30.6335 84.918 29.9629C84.1888 29.2858 83.8242 28.4525 83.8242 27.4629C83.8242 26.3431 84.2702 25.4186 85.1621 24.6895C86.0605 23.9538 87.2259 23.5859 88.6582 23.5859C89.6348 23.5859 90.5039 23.7747 91.2656 24.1523C92.0339 24.5299 92.6263 25.0508 93.043 25.7148C93.4661 26.3789 93.6777 27.1048 93.6777 27.8926H91.793C91.793 27.0332 91.5195 26.3594 90.9727 25.8711C90.4258 25.3763 89.6543 25.1289 88.6582 25.1289C87.7337 25.1289 87.0111 25.334 86.4902 25.7441C85.9759 26.1478 85.7188 26.7109 85.7188 27.4336C85.7188 28.013 85.9629 28.5046 86.4512 28.9082C86.946 29.3053 87.7826 29.6699 88.9609 30.002C90.1458 30.334 91.0703 30.7018 91.7344 31.1055C92.4049 31.5026 92.8997 31.9681 93.2188 32.502C93.5443 33.0358 93.707 33.6641 93.707 34.3867C93.707 35.5391 93.2578 36.4635 92.3594 37.1602C91.4609 37.8503 90.2598 38.1953 88.7559 38.1953C87.7793 38.1953 86.8678 38.0098 86.0215 37.6387C85.1751 37.2611 84.5208 36.7467 84.0586 36.0957C83.6029 35.4447 83.375 34.7057 83.375 33.8789H85.2598C85.2598 34.7383 85.5755 35.4186 86.207 35.9199C86.8451 36.4147 87.6947 36.6621 88.7559 36.6621C89.7454 36.6621 90.5039 36.4603 91.0312 36.0566C91.5586 35.653 91.8223 35.1029 91.8223 34.4062C91.8223 33.7096 91.5781 33.1725 91.0898 32.7949C90.6016 32.4108 89.7161 32.0332 88.4336 31.6621ZM111.09 23.7812V33.4492C111.083 34.7904 110.66 35.8874 109.82 36.7402C108.987 37.5931 107.854 38.0716 106.422 38.1758L105.924 38.1953C104.368 38.1953 103.128 37.7754 102.203 36.9355C101.279 36.0957 100.81 34.9401 100.797 33.4688V23.7812H102.652V33.4102C102.652 34.4388 102.936 35.2396 103.502 35.8125C104.068 36.3789 104.876 36.6621 105.924 36.6621C106.985 36.6621 107.796 36.3789 108.355 35.8125C108.922 35.2461 109.205 34.4486 109.205 33.4199V23.7812H111.09ZM124.977 38H123.092L115.934 27.043V38H114.049V23.7812H115.934L123.111 34.7871V23.7812H124.977V38ZM130.318 38H128.443V23.7812H130.318V38ZM138.463 35.5098L142.525 23.7812H144.576L139.303 38H137.643L132.379 23.7812H134.42L138.463 35.5098ZM154.527 31.4277H148.365V36.4668H155.523V38H146.49V23.7812H155.426V25.3242H148.365V29.8945H154.527V31.4277ZM163.072 32.248H159.732V38H157.848V23.7812H162.555C164.156 23.7812 165.387 24.1458 166.246 24.875C167.112 25.6042 167.545 26.6654 167.545 28.0586C167.545 28.944 167.304 29.7155 166.822 30.373C166.347 31.0306 165.683 31.5221 164.83 31.8477L168.17 37.8828V38H166.158L163.072 32.248ZM159.732 30.7148H162.613C163.544 30.7148 164.283 30.474 164.83 29.9922C165.383 29.5104 165.66 28.8659 165.66 28.0586C165.66 27.1797 165.396 26.5059 164.869 26.0371C164.348 25.5684 163.593 25.3307 162.604 25.3242H159.732V30.7148ZM174.371 31.6621C172.763 31.1999 171.591 30.6335 170.855 29.9629C170.126 29.2858 169.762 28.4525 169.762 27.4629C169.762 26.3431 170.208 25.4186 171.1 24.6895C171.998 23.9538 173.163 23.5859 174.596 23.5859C175.572 23.5859 176.441 23.7747 177.203 24.1523C177.971 24.5299 178.564 25.0508 178.98 25.7148C179.404 26.3789 179.615 27.1048 179.615 27.8926H177.73C177.73 27.0332 177.457 26.3594 176.91 25.8711C176.363 25.3763 175.592 25.1289 174.596 25.1289C173.671 25.1289 172.949 25.334 172.428 25.7441C171.913 26.1478 171.656 26.7109 171.656 27.4336C171.656 28.013 171.9 28.5046 172.389 28.9082C172.883 29.3053 173.72 29.6699 174.898 30.002C176.083 30.334 177.008 30.7018 177.672 31.1055C178.342 31.5026 178.837 31.9681 179.156 32.502C179.482 33.0358 179.645 33.6641 179.645 34.3867C179.645 35.5391 179.195 36.4635 178.297 37.1602C177.398 37.8503 176.197 38.1953 174.693 38.1953C173.717 38.1953 172.805 38.0098 171.959 37.6387C171.113 37.2611 170.458 36.7467 169.996 36.0957C169.54 35.4447 169.312 34.7057 169.312 33.8789H171.197C171.197 34.7383 171.513 35.4186 172.145 35.9199C172.783 36.4147 173.632 36.6621 174.693 36.6621C175.683 36.6621 176.441 36.4603 176.969 36.0566C177.496 35.653 177.76 35.1029 177.76 34.4062C177.76 33.7096 177.516 33.1725 177.027 32.7949C176.539 32.4108 175.654 32.0332 174.371 31.6621ZM184.068 38H182.193V23.7812H184.068V38ZM197.037 25.3242H192.467V38H190.602V25.3242H186.041V23.7812H197.037V25.3242ZM203.639 30.9199L207.35 23.7812H209.479L204.576 32.6973V38H202.701V32.6973L197.799 23.7812H199.947L203.639 30.9199ZM220.465 31.6621C218.857 31.1999 217.685 30.6335 216.949 29.9629C216.22 29.2858 215.855 28.4525 215.855 27.4629C215.855 26.3431 216.301 25.4186 217.193 24.6895C218.092 23.9538 219.257 23.5859 220.689 23.5859C221.666 23.5859 222.535 23.7747 223.297 24.1523C224.065 24.5299 224.658 25.0508 225.074 25.7148C225.497 26.3789 225.709 27.1048 225.709 27.8926H223.824C223.824 27.0332 223.551 26.3594 223.004 25.8711C222.457 25.3763 221.686 25.1289 220.689 25.1289C219.765 25.1289 219.042 25.334 218.521 25.7441C218.007 26.1478 217.75 26.7109 217.75 27.4336C217.75 28.013 217.994 28.5046 218.482 28.9082C218.977 29.3053 219.814 29.6699 220.992 30.002C222.177 30.334 223.102 30.7018 223.766 31.1055C224.436 31.5026 224.931 31.9681 225.25 32.502C225.576 33.0358 225.738 33.6641 225.738 34.3867C225.738 35.5391 225.289 36.4635 224.391 37.1602C223.492 37.8503 222.291 38.1953 220.787 38.1953C219.811 38.1953 218.899 38.0098 218.053 37.6387C217.206 37.2611 216.552 36.7467 216.09 36.0957C215.634 35.4447 215.406 34.7057 215.406 33.8789H217.291C217.291 34.7383 217.607 35.4186 218.238 35.9199C218.876 36.4147 219.726 36.6621 220.787 36.6621C221.777 36.6621 222.535 36.4603 223.062 36.0566C223.59 35.653 223.854 35.1029 223.854 34.4062C223.854 33.7096 223.609 33.1725 223.121 32.7949C222.633 32.4108 221.747 32.0332 220.465 31.6621ZM239.088 31.3496C239.088 32.7428 238.854 33.9603 238.385 35.002C237.916 36.0371 237.252 36.8281 236.393 37.375C235.533 37.9219 234.531 38.1953 233.385 38.1953C232.265 38.1953 231.272 37.9219 230.406 37.375C229.54 36.8216 228.867 36.0371 228.385 35.0215C227.91 33.9993 227.665 32.8177 227.652 31.4766V30.4512C227.652 29.084 227.89 27.8763 228.365 26.8281C228.84 25.7799 229.511 24.9792 230.377 24.4258C231.249 23.8659 232.245 23.5859 233.365 23.5859C234.505 23.5859 235.507 23.8626 236.373 24.416C237.245 24.9629 237.916 25.7604 238.385 26.8086C238.854 27.8503 239.088 29.0645 239.088 30.4512V31.3496ZM237.223 30.4316C237.223 28.7454 236.884 27.4531 236.207 26.5547C235.53 25.6497 234.583 25.1973 233.365 25.1973C232.18 25.1973 231.246 25.6497 230.562 26.5547C229.885 27.4531 229.537 28.7031 229.518 30.3047V31.3496C229.518 32.9837 229.859 34.2695 230.543 35.207C231.233 36.138 232.18 36.6035 233.385 36.6035C234.596 36.6035 235.533 36.1641 236.197 35.2852C236.861 34.3997 237.203 33.1335 237.223 31.4863V30.4316ZM249.742 31.7207H243.775V38H241.9V23.7812H250.709V25.3242H243.775V30.1875H249.742V31.7207ZM262.975 25.3242H258.404V38H256.539V25.3242H251.979V23.7812H262.975V25.3242ZM268.307 33.5176L268.58 35.3926L268.98 33.7031L271.793 23.7812H273.375L276.119 33.7031L276.51 35.4219L276.812 33.5078L279.02 23.7812H280.904L277.457 38H275.748L272.818 27.6387L272.594 26.5547L272.369 27.6387L269.332 38H267.623L264.186 23.7812H266.061L268.307 33.5176ZM290.416 34.2891H284.459L283.121 38H281.188L286.617 23.7812H288.258L293.697 38H291.773L290.416 34.2891ZM285.025 32.7461H289.859L287.438 26.0957L285.025 32.7461ZM300.826 32.248H297.486V38H295.602V23.7812H300.309C301.91 23.7812 303.141 24.1458 304 24.875C304.866 25.6042 305.299 26.6654 305.299 28.0586C305.299 28.944 305.058 29.7155 304.576 30.373C304.101 31.0306 303.437 31.5221 302.584 31.8477L305.924 37.8828V38H303.912L300.826 32.248ZM297.486 30.7148H300.367C301.298 30.7148 302.037 30.474 302.584 29.9922C303.137 29.5104 303.414 28.8659 303.414 28.0586C303.414 27.1797 303.15 26.5059 302.623 26.0371C302.102 25.5684 301.347 25.3307 300.357 25.3242H297.486V30.7148ZM315.973 31.4277H309.811V36.4668H316.969V38H307.936V23.7812H316.871V25.3242H309.811V29.8945H315.973V31.4277Z" fill="#848383"/>
</g>
<defs>
<filter id="filter0_di" x="0.595703" y="0.585938" width="320.373" height="45.6094" filterUnits="userSpaceOnUse" color-interpolation-filters="sRGB">
<feFlood flood-opacity="0" result="BackgroundImageFix"/>
<feColorMatrix in="SourceAlpha" type="matrix" values="0 0 0 0 0 0 0 0 0 0 0 0 0 0 0 0 0 0 127 0"/>
<feOffset dy="4"/>
<feGaussianBlur stdDeviation="2"/>
<feColorMatrix type="matrix" values="0 0 0 0 0 0 0 0 0 0 0 0 0 0 0 0 0 0 0.25 0"/>
<feBlend mode="normal" in2="BackgroundImageFix" result="effect1_dropShadow"/>
<feBlend mode="normal" in="SourceGraphic" in2="effect1_dropShadow" result="shape"/>
<feColorMatrix in="SourceAlpha" type="matrix" values="0 0 0 0 0 0 0 0 0 0 0 0 0 0 0 0 0 0 127 0" result="hardAlpha"/>
<feOffset dy="4"/>
<feGaussianBlur stdDeviation="2"/>
<feComposite in2="hardAlpha" operator="arithmetic" k2="-1" k3="1"/>
<feColorMatrix type="matrix" values="0 0 0 0 0 0 0 0 0 0 0 0 0 0 0 0 0 0 0.25 0"/>
<feBlend mode="normal" in2="shape" result="effect2_innerShadow"/>
</filter>
</defs>
</svg>
